<?xml version="1.0" encoding="UTF-8" standalone="no"?>
<!-- Created with Inkscape (http://www.inkscape.org/) -->

<svg
   width="1024"
   height="500"
   viewBox="0 0 270.93333 132.29167"
   version="1.1"
   id="svg5"
   xml:space="preserve"
   inkscape:version="1.2.2 (b0a8486, 2022-12-01)"
   sodipodi:docname="feature-v1.svg"
   inkscape:export-filename="feature-v1.png"
   inkscape:export-xdpi="96"
   inkscape:export-ydpi="96"
   xmlns:inkscape="http://www.inkscape.org/namespaces/inkscape"
   xmlns:sodipodi="http://sodipodi.sourceforge.net/DTD/sodipodi-0.dtd"
   xmlns="http://www.w3.org/2000/svg"
   xmlns:svg="http://www.w3.org/2000/svg"><sodipodi:namedview
     id="namedview7"
     pagecolor="#009688"
     bordercolor="#000000"
     borderopacity="0.25"
     inkscape:showpageshadow="false"
     inkscape:pageopacity="1"
     inkscape:pagecheckerboard="true"
     inkscape:deskcolor="#d1d1d1"
     inkscape:document-units="px"
     showgrid="false"
     inkscape:zoom="0.84096521"
     inkscape:cx="534.50487"
     inkscape:cy="188.47391"
     inkscape:window-width="1603"
     inkscape:window-height="997"
     inkscape:window-x="77"
     inkscape:window-y="25"
     inkscape:window-maximized="1"
     inkscape:current-layer="layer1" /><defs
     id="defs2"><rect
       x="297.27746"
       y="210.47244"
       width="664.7124"
       height="240.20019"
       id="rect1085" /><rect
       x="38.051515"
       y="40.429734"
       width="929.8839"
       height="87.994125"
       id="rect1060" /><rect
       x="49.942613"
       y="36.862405"
       width="914.42546"
       height="196.20312"
       id="rect1054" /><rect
       x="316.30322"
       y="68.968371"
       width="644.49753"
       height="218.79621"
       id="rect1048" /><rect
       x="355.54384"
       y="67.779261"
       width="607.63513"
       height="166.47538"
       id="rect386" /></defs><g
     inkscape:label="Layer 1"
     inkscape:groupmode="layer"
     id="layer1"><g
       style="fill:none;stroke:#ffffff"
       id="g147"
       transform="matrix(2.4518501,0,0,2.6201189,9.8985615,52.803851)"><g
         id="SVGRepo_bgCarrier"
         stroke-width="0" /><g
         id="SVGRepo_tracerCarrier"
         stroke-linecap="round"
         stroke-linejoin="round" /><g
         id="SVGRepo_iconCarrier"><path
           d="m 14.05,6 c 0.9768,0.19057 1.8744,0.66826 2.5781,1.37194 C 17.3318,8.07561 17.8095,8.97326 18,9.95 M 14.05,2 c 2.0293,0.22544 3.9216,1.13417 5.3663,2.57701 C 20.8609,6.01984 21.7721,7.91101 22,9.94 M 18.5,21 C 9.93959,21 3,14.0604 3,5.5 3,5.11378 3.01413,4.73086 3.04189,4.35173 3.07375,3.91662 3.08968,3.69907 3.2037,3.50103 3.29814,3.33701 3.4655,3.18146 3.63598,3.09925 3.84181,3 4.08188,3 4.56201,3 h 2.81731 c 0.40376,0 0.60564,0 0.7787,0.06645 0.15287,0.0587 0.28899,0.15404 0.3964,0.27765 0.12159,0.13993 0.19058,0.32966 0.32857,0.70911 l 1.16611,3.20684 c 0.1605,0.44148 0.2408,0.66222 0.2272,0.87165 -0.012,0.18467 -0.0751,0.36238 -0.1821,0.51336 C 9.97286,8.81628 9.77145,8.93713 9.36863,9.17882 L 8,10 c 1.2019,2.6489 3.3501,4.7999 6,6 l 0.8212,-1.3686 c 0.2417,-0.4029 0.3625,-0.6043 0.5337,-0.7256 0.151,-0.107 0.3287,-0.1701 0.5134,-0.1821 0.2094,-0.0136 0.4302,0.0667 0.8717,0.2272 l 3.2068,1.1661 c 0.3794,0.138 0.5692,0.207 0.7091,0.3286 0.1236,0.1074 0.219,0.2435 0.2776,0.3964 C 21,16.015 21,16.2169 21,16.6207 v 2.8173 c 0,0.4801 0,0.7202 -0.0993,0.926 -0.0822,0.1705 -0.2377,0.3379 -0.4017,0.4323 -0.1981,0.114 -0.4156,0.1299 -0.8507,0.1618 C 19.2691,20.9859 18.8862,21 18.5,21 Z"
           stroke="#ffffff"
           stroke-width="2"
           stroke-linecap="round"
           stroke-linejoin="round"
           id="path134" /></g></g><text
       xml:space="preserve"
       transform="scale(0.26458334)"
       id="text384"
       style="font-size:85.3333px;font-family:'Arial Black';-inkscape-font-specification:'Arial Black, ';white-space:pre;shape-inside:url(#rect386);display:inline;fill:#ffff00;stroke:#88888f;stroke-width:0" /><text
       xml:space="preserve"
       transform="matrix(0.26458334,0,0,0.26458334,3.6679345,11.64089)"
       id="text1058"
       style="font-size:74.6667px;font-family:'Arial Black';-inkscape-font-specification:'Arial Black, ';white-space:pre;shape-inside:url(#rect1060);display:inline;fill:#ffffff;fill-opacity:1;stroke:#88888f;stroke-width:0"><tspan
         x="38.050781"
         y="107.37428"
         id="tspan1386">Shake to Call / Answer</tspan></text><text
       xml:space="preserve"
       transform="scale(0.26458334)"
       id="text1083"
       style="font-size:42.6667px;font-family:'Arial Black';-inkscape-font-specification:'Arial Black, ';white-space:pre;shape-inside:url(#rect1085);fill:#ffffff;fill-opacity:1;stroke:#88888f;stroke-width:0"><tspan
         x="297.27734"
         y="248.72672"
         id="tspan1388">Shake your phone to make a </tspan><tspan
         x="297.27734"
         y="302.06009"
         id="tspan1390">call, answer an incoming </tspan><tspan
         x="297.27734"
         y="355.39347"
         id="tspan1392">call, or even end an ongoing </tspan><tspan
         x="297.27734"
         y="408.72684"
         id="tspan1394">call!</tspan></text></g></svg>
